<?xml version="1.0" encoding="utf-8"?>
<svg viewBox="0.0002 0.0003 200.1147 180.3635" xmlns="http://www.w3.org/2000/svg">
  <defs>
    <clipPath clipPathUnits="userSpaceOnUse" id="a">
      <path d="M0 1920h1080V0H0Z" transform="translate(-135.1357 -1781.7031)"/>
    </clipPath>
  </defs>
  <path d="M0 0c-.707-.629-1.388-.092-1.559.196-3.15 4.808-4.178 9.826-4.586 12.945-.215 1.991-1.283 8.175-12.989 8.175-10.14 0-11.064-8.294-11.176-9.892-.74-8.778 3.793-17.176 9.774-23.504.597-.694.177-.969-.085-1.075-23.498-7.061-28.09 5.726-28.771 7.966-1.906 5.791-2.306 12.761-2.306 17.779 0 22.836 2.175 50.468 41.283 50.468 5.706 0 21.808.563 28.535-10.809C26.794 37.968 16.613 15.512 0 0m49.931-11.333c-2.673-.996-17.282-4.442-33.16-.459-.688.197-.354.577-.131.76 14.948 13.665 23.229 30.33 23.229 47.218 0 5.752-.879 12.002-3.63 17.7 0 0 0-.052.053-.065-2.752 5.542-11.844 20.805-46.943 20.805-.027 0-.052.053-.17.053 0 0 0-.053.052-.053-7.794-.013-15.912-.445-24.27-1.257-.747-.027-1.068.222-.675 1.139 5.974 10.979 13.101 20.373 20.792 27.343.459.524.052 1.022-.275 1.245-4.041 2.699-12.447 2.292-21.015-1.271-5.666-2.398-10.271-5.765-12.983-9.119-5.019-6.682-9.552-14.294-13.469-22.495-.275-.655-.839-.93-1.113-.944-8.805-1.729-17.406-3.694-25.509-5.96-2.581-.839-3.328-1.966-3.655-2.595-.675-1.245-1.246-2.542-1.855-3.957-4.067-9.996-3.806-19.717.44-22.587 1.415-.694 2.567.105 3.367.511 5.803 2.909 11.928 5.739 18.329 8.464.21.092.472.157.426-.289-1.907-8.175-2.837-16.114-2.837-23.53 0-38.545 22.468-49.746 45.645-49.746 1.926 0 3.878.065 5.844.301-.013 0-.189 0-.445.039l.445-.039c7.127.734 14.49 2.882 21.565 6.341.472.184.891.144 1.1.105 24.271-5.503 41.179.839 49.197 5.398 6.118 3.524 4.284 7.992 1.651 6.944" transform="matrix(1.3333300352096558, 0, 0, -1.3333300352096558, 130.26515197753906, 139.8012237548828)" clip-path="url(#a)" style="fill: rgb(0, 80, 157);"/>
</svg>